<svg width="32" height="38" viewBox="0 0 32 38" fill="none" xmlns="http://www.w3.org/2000/svg" xmlns:xlink="http://www.w3.org/1999/xlink">
<path d="M11.437,6.121C11.437,6.673 11.885,7.121 12.437,7.121C12.989,7.121 13.437,6.673 13.437,6.121L11.437,6.121ZM18.233,6.121C18.233,6.673 18.681,7.121 19.233,7.121C19.785,7.121 20.233,6.673 20.233,6.121L18.233,6.121ZM26.789,22.238L26.022,22.879L26.022,22.879L26.789,22.238ZM29.977,27.949L30.965,27.796L30.965,27.796L29.977,27.949ZM15.993,4.598C15.441,4.598 14.993,5.046 14.993,5.598C14.993,6.151 15.441,6.598 15.993,6.598L15.993,4.598ZM26.435,14.554L25.44,14.652L25.44,14.652L26.435,14.554ZM5.211,22.238L5.978,22.879L5.978,22.879L5.211,22.238ZM2.023,27.949L3.011,28.101L3.011,28.101L2.023,27.949ZM16.007,6.598C16.559,6.598 17.007,6.151 17.007,5.598C17.007,5.046 16.559,4.598 16.007,4.598L16.007,6.598ZM5.565,14.554L4.57,14.455L5.565,14.554ZM20.273,30.298L20.273,30.815L22.273,30.815L22.273,30.298L20.273,30.298ZM11.593,30.815L11.593,30.298L9.593,30.298L9.593,30.815L11.593,30.815ZM15.933,35C13.508,35 11.593,33.099 11.593,30.815L9.593,30.815C9.593,34.259 12.459,37 15.933,37L15.933,35ZM20.273,30.815C20.273,33.099 18.357,35 15.933,35L15.933,37C19.406,37 22.273,34.259 22.273,30.815L20.273,30.815ZM13.437,6.121C13.437,4.989 13.761,4.21 14.183,3.729C14.6,3.255 15.172,3 15.835,3L15.835,1C14.622,1 13.494,1.484 12.681,2.409C11.874,3.327 11.437,4.609 11.437,6.121L13.437,6.121ZM15.835,3C16.498,3 17.07,3.255 17.487,3.729C17.91,4.21 18.233,4.989 18.233,6.121L20.233,6.121C20.233,4.609 19.796,3.327 18.989,2.409C18.176,1.484 17.049,1 15.835,1L15.835,3ZM26.022,22.879C26.231,23.13 26.554,23.423 26.787,23.651C27.054,23.912 27.336,24.206 27.613,24.577C28.157,25.303 28.722,26.379 28.989,28.101L30.965,27.796C30.648,25.746 29.952,24.365 29.215,23.379C28.851,22.892 28.487,22.516 28.185,22.221C27.85,21.893 27.68,21.744 27.556,21.597L26.022,22.879ZM15.993,6.598C15.995,6.598 15.997,6.598 15.999,6.598L16.001,4.598C15.998,4.598 15.996,4.598 15.993,4.598L15.993,6.598ZM15.999,6.598C21.037,6.601 25.048,10.691 25.44,14.652L27.43,14.455C26.936,9.464 22.059,4.602 16.001,4.598L15.999,6.598ZM25.44,14.652C25.653,16.808 25.55,18.424 25.484,19.669C25.452,20.275 25.425,20.858 25.467,21.355C25.51,21.854 25.633,22.414 26.022,22.879L27.556,21.597C27.551,21.59 27.488,21.514 27.46,21.184C27.432,20.851 27.448,20.411 27.481,19.774C27.547,18.532 27.66,16.778 27.43,14.455L25.44,14.652ZM4.444,21.597C4.32,21.744 4.15,21.893 3.815,22.221C3.513,22.516 3.149,22.892 2.785,23.379C2.048,24.365 1.352,25.746 1.035,27.796L3.011,28.101C3.278,26.379 3.843,25.303 4.387,24.577C4.664,24.206 4.946,23.912 5.213,23.651C5.446,23.423 5.769,23.13 5.978,22.879L4.444,21.597ZM16.007,4.598C16.004,4.598 16.002,4.598 15.999,4.598L16.001,6.598C16.003,6.598 16.005,6.598 16.007,6.598L16.007,4.598ZM15.999,4.598C9.941,4.602 5.064,9.464 4.57,14.455L6.56,14.652C6.952,10.691 10.963,6.601 16.001,6.598L15.999,4.598ZM4.57,14.455C4.34,16.778 4.453,18.532 4.519,19.774C4.552,20.411 4.568,20.851 4.54,21.184C4.512,21.514 4.449,21.59 4.444,21.597L5.978,22.879C6.367,22.414 6.49,21.854 6.533,21.355C6.575,20.858 6.548,20.275 6.516,19.669C6.45,18.424 6.347,16.808 6.56,14.652L4.57,14.455ZM4.282,31.298L27.718,31.298L27.718,29.298L4.282,29.298L4.282,31.298ZM1.035,27.796C0.72,29.829 2.479,31.298 4.282,31.298L4.282,29.298C3.404,29.298 2.928,28.642 3.011,28.101L1.035,27.796ZM28.989,28.101C29.072,28.642 28.596,29.298 27.718,29.298L27.718,31.298C29.521,31.298 31.28,29.829 30.965,27.796L28.989,28.101Z" fill="#000000"/>
<circle cx="25" cy="9" r="5" fill="#331419"/>
</svg>
