<svg width="22" height="30" viewBox="0 0 22 30" fill="none" xmlns="http://www.w3.org/2000/svg" xmlns:xlink="http://www.w3.org/1999/xlink">
<path d="M16.369,18.377C16.369,17.825 15.921,17.377 15.369,17.377C14.816,17.377 14.369,17.825 14.369,18.377L16.369,18.377ZM15.369,28.093L14.755,28.882C15.056,29.117 15.465,29.159 15.808,28.991C16.151,28.823 16.369,28.475 16.369,28.093L15.369,28.093ZM7.041,28.093L6.041,28.093C6.041,28.475 6.259,28.823 6.602,28.991C6.945,29.159 7.354,29.117 7.655,28.882L7.041,28.093ZM8.041,18.377C8.041,17.825 7.593,17.377 7.041,17.377C6.489,17.377 6.041,17.825 6.041,18.377L8.041,18.377ZM11.205,24.854L11.819,24.065C11.458,23.784 10.952,23.784 10.591,24.065L11.205,24.854ZM14.369,18.377L14.369,28.093L16.369,28.093L16.369,18.377L14.369,18.377ZM8.041,28.093L8.041,18.377L6.041,18.377L6.041,28.093L8.041,28.093ZM15.983,27.304L11.819,24.065L10.591,25.644L14.755,28.882L15.983,27.304ZM10.591,24.065L6.427,27.304L7.655,28.882L11.819,25.644L10.591,24.065Z" fill="#331419"/>
<path d="M11.205,2L12.003,1.398C11.815,1.147 11.519,1 11.205,1C10.891,1 10.595,1.147 10.406,1.398L11.205,2ZM13.258,4.724L12.459,5.326C12.725,5.678 13.19,5.815 13.604,5.662L13.258,4.724ZM16.457,3.542L17.455,3.468C17.431,3.155 17.262,2.871 16.998,2.701C16.734,2.531 16.405,2.495 16.111,2.604L16.457,3.542ZM16.712,6.944L15.714,7.018C15.747,7.458 16.065,7.825 16.496,7.92L16.712,6.944ZM20.042,7.68L20.922,8.156C21.071,7.88 21.082,7.55 20.952,7.264C20.822,6.979 20.565,6.771 20.258,6.703L20.042,7.68ZM18.417,10.678L17.538,10.202C17.328,10.59 17.397,11.07 17.708,11.383L18.417,10.678ZM20.821,13.098L21.304,13.974C21.579,13.823 21.767,13.551 21.811,13.24C21.856,12.93 21.752,12.616 21.531,12.393L20.821,13.098ZM17.833,14.742L17.351,13.866C16.964,14.079 16.763,14.52 16.855,14.952L17.833,14.742ZM18.547,18.078L18.479,19.075C18.792,19.097 19.097,18.97 19.303,18.733C19.509,18.495 19.591,18.175 19.525,17.868L18.547,18.078ZM15.144,17.845L15.212,16.848C14.772,16.818 14.364,17.08 14.208,17.493L15.144,17.845ZM13.942,21.037L13.345,21.84C13.597,22.027 13.923,22.085 14.224,21.997C14.525,21.908 14.767,21.684 14.878,21.39L13.942,21.037ZM11.205,19.002L11.802,18.2C11.447,17.936 10.962,17.936 10.608,18.2L11.205,19.002ZM8.468,21.037L7.532,21.39C7.643,21.684 7.885,21.908 8.186,21.997C8.487,22.085 8.812,22.027 9.064,21.84L8.468,21.037ZM7.265,17.845L8.201,17.493C8.046,17.08 7.638,16.818 7.197,16.848L7.265,17.845ZM3.862,18.078L2.885,17.868C2.819,18.175 2.901,18.495 3.107,18.733C3.312,18.97 3.617,19.097 3.931,19.075L3.862,18.078ZM4.577,14.742L5.555,14.952C5.647,14.52 5.446,14.079 5.059,13.866L4.577,14.742ZM1.588,13.098L0.879,12.393C0.658,12.616 0.554,12.93 0.598,13.24C0.643,13.551 0.831,13.823 1.106,13.974L1.588,13.098ZM3.992,10.678L4.702,11.383C5.013,11.07 5.082,10.59 4.872,10.202L3.992,10.678ZM2.367,7.68L2.152,6.703C1.845,6.771 1.588,6.979 1.458,7.264C1.327,7.55 1.339,7.88 1.488,8.156L2.367,7.68ZM5.698,6.944L5.914,7.92C6.345,7.825 6.662,7.458 6.695,7.018L5.698,6.944ZM5.952,3.542L6.299,2.604C6.004,2.495 5.676,2.531 5.412,2.701C5.148,2.871 4.978,3.155 4.955,3.468L5.952,3.542ZM9.152,4.724L8.806,5.662C9.22,5.815 9.685,5.678 9.951,5.326L9.152,4.724ZM10.406,2.602L12.459,5.326L14.056,4.122L12.003,1.398L10.406,2.602ZM13.604,5.662L16.804,4.48L16.111,2.604L12.911,3.786L13.604,5.662ZM15.46,3.617L15.714,7.018L17.709,6.869L17.455,3.468L15.46,3.617ZM16.496,7.92L19.827,8.656L20.258,6.703L16.927,5.967L16.496,7.92ZM19.163,7.203L17.538,10.202L19.297,11.155L20.922,8.156L19.163,7.203ZM17.708,11.383L20.112,13.803L21.531,12.393L19.127,9.974L17.708,11.383ZM20.339,12.222L17.351,13.866L18.315,15.619L21.304,13.974L20.339,12.222ZM16.855,14.952L17.57,18.287L19.525,17.868L18.811,14.533L16.855,14.952ZM18.615,17.08L15.212,16.848L15.076,18.843L18.479,19.075L18.615,17.08ZM14.208,17.493L13.006,20.685L14.878,21.39L16.08,18.198L14.208,17.493ZM14.539,20.235L11.802,18.2L10.608,19.805L13.345,21.84L14.539,20.235ZM10.608,18.2L7.871,20.235L9.064,21.84L11.802,19.805L10.608,18.2ZM9.404,20.685L8.201,17.493L6.33,18.198L7.532,21.39L9.404,20.685ZM7.197,16.848L3.794,17.08L3.931,19.075L7.334,18.843L7.197,16.848ZM4.84,18.287L5.555,14.952L3.599,14.533L2.885,17.868L4.84,18.287ZM5.059,13.866L2.07,12.222L1.106,13.974L4.095,15.619L5.059,13.866ZM2.298,13.803L4.702,11.383L3.283,9.974L0.879,12.393L2.298,13.803ZM4.872,10.202L3.247,7.203L1.488,8.156L3.113,11.155L4.872,10.202ZM2.583,8.656L5.914,7.92L5.482,5.967L2.152,6.703L2.583,8.656ZM6.695,7.018L6.949,3.617L4.955,3.468L4.701,6.869L6.695,7.018ZM5.606,4.48L8.806,5.662L9.498,3.786L6.299,2.604L5.606,4.48ZM9.951,5.326L12.003,2.602L10.406,1.398L8.353,4.122L9.951,5.326Z" fill="#331419"/>
</svg>
