<svg width="10" height="10" viewBox="0 0 10 10" fill="none" xmlns="http://www.w3.org/2000/svg" xmlns:xlink="http://www.w3.org/1999/xlink">
<path d="M0.741,8.009C0.356,8.405 0.365,9.038 0.761,9.423C1.157,9.808 1.79,9.799 2.175,9.403L0.741,8.009ZM9.318,2.05C9.703,1.654 9.694,1.021 9.298,0.636C8.902,0.251 8.268,0.26 7.884,0.656L9.318,2.05ZM5.029,5.03L4.312,4.333L4.312,4.333L5.029,5.03ZM2.175,9.403L5.747,5.726L4.312,4.333L0.741,8.009L2.175,9.403ZM5.747,5.726L9.318,2.05L7.884,0.656L4.312,4.333L5.747,5.726Z" fill="#331419"/>
<path d="M0.741,8.009C0.356,8.405 0.365,9.038 0.761,9.423C1.157,9.808 1.79,9.799 2.175,9.403L0.741,8.009ZM9.318,2.05C9.703,1.654 9.694,1.021 9.298,0.636C8.901,0.251 8.268,0.26 7.883,0.656L9.318,2.05ZM5.029,5.029L4.312,4.333L4.312,4.333L5.029,5.029ZM2.175,9.403L5.747,5.726L4.312,4.333L0.741,8.009L2.175,9.403ZM5.747,5.726L9.318,2.05L7.883,0.656L4.312,4.333L5.747,5.726Z" transform="rotate(180 5.029 5.029)" fill="#331419"/>
</svg>
