<svg width="26" height="26" viewBox="0 0 26 26" fill="none" xmlns="http://www.w3.org/2000/svg" xmlns:xlink="http://www.w3.org/1999/xlink">
<path d="M13,2L13.923,1.616L13,-0.604L12.077,1.616L13,2ZM15.91,8.995L14.986,9.379L15.221,9.943L15.83,9.992L15.91,8.995ZM23.462,9.601L24.112,10.36L25.938,8.796L23.542,8.604L23.462,9.601ZM17.708,14.53L17.057,13.77L16.593,14.168L16.735,14.762L17.708,14.53ZM19.466,21.899L18.944,22.753L20.996,24.006L20.438,21.667L19.466,21.899ZM13,17.95L13.521,17.097L13,16.778L12.479,17.097L13,17.95ZM6.534,21.899L5.562,21.667L5.004,24.006L7.056,22.753L6.534,21.899ZM8.292,14.53L9.265,14.762L9.407,14.168L8.943,13.77L8.292,14.53ZM2.538,9.601L2.458,8.604L0.062,8.796L1.888,10.36L2.538,9.601ZM10.09,8.995L10.17,9.992L10.779,9.943L11.014,9.379L10.09,8.995ZM12.077,2.384L14.986,9.379L16.833,8.611L13.923,1.616L12.077,2.384ZM15.83,9.992L23.382,10.598L23.542,8.604L15.989,7.999L15.83,9.992ZM22.811,8.841L17.057,13.77L18.358,15.289L24.112,10.36L22.811,8.841ZM16.735,14.762L18.493,22.131L20.438,21.667L18.68,14.298L16.735,14.762ZM19.987,21.046L13.521,17.097L12.479,18.803L18.944,22.753L19.987,21.046ZM12.479,17.097L6.013,21.046L7.056,22.753L13.521,18.803L12.479,17.097ZM7.507,22.131L9.265,14.762L7.32,14.298L5.562,21.667L7.507,22.131ZM8.943,13.77L3.189,8.841L1.888,10.36L7.642,15.289L8.943,13.77ZM2.618,10.598L10.17,9.992L10.011,7.999L2.458,8.604L2.618,10.598ZM11.014,9.379L13.923,2.384L12.077,1.616L9.167,8.611L11.014,9.379Z" fill="#331419"/>
</svg>
