<svg width="22" height="22" viewBox="0 0 22 22" fill="none" xmlns="http://www.w3.org/2000/svg" xmlns:xlink="http://www.w3.org/1999/xlink">
<path d="M19.998,0.006C19.608,-0.385 18.975,-0.387 18.583,0.003C18.192,0.393 18.191,1.026 18.58,1.417L19.998,0.006ZM19.437,4.16L20.146,4.866L20.178,4.833L20.208,4.797L19.437,4.16ZM18.583,1.42C18.972,1.811 19.605,1.812 19.997,1.423C20.388,1.033 20.39,0.4 20,0.009L18.583,1.42ZM15.858,0.565L15.217,-0.203L15.182,-0.173L15.149,-0.14L15.858,0.565ZM13.809,1.206C13.419,1.597 13.421,2.23 13.812,2.62C14.203,3.01 14.836,3.008 15.226,2.617L13.809,1.206ZM17.388,4.8C16.999,5.192 17,5.825 17.391,6.215C17.783,6.604 18.416,6.603 18.806,6.212L17.388,4.8ZM1.42,1.417C1.809,1.026 1.808,0.393 1.417,0.003C1.025,-0.387 0.392,-0.385 0.002,0.006L1.42,1.417ZM0.563,4.16L-0.208,4.797L-0.178,4.833L-0.146,4.866L0.563,4.16ZM0,0.009C-0.39,0.4 -0.388,1.033 0.003,1.423C0.395,1.812 1.028,1.811 1.417,1.42L0,0.009ZM4.142,0.565L4.851,-0.14L4.818,-0.173L4.783,-0.203L4.142,0.565ZM4.774,2.617C5.164,3.008 5.797,3.01 6.188,2.62C6.579,2.23 6.581,1.597 6.191,1.206L4.774,2.617ZM1.194,6.212C1.584,6.603 2.217,6.604 2.609,6.215C3,5.825 3.001,5.192 2.612,4.8L1.194,6.212ZM15.686,20.498C15.961,20.977 16.573,21.142 17.051,20.867C17.53,20.592 17.695,19.98 17.42,19.502L15.686,20.498ZM2.732,19.502C2.457,19.98 2.622,20.592 3.101,20.867C3.58,21.142 4.191,20.977 4.466,20.498L2.732,19.502ZM10.15,9.88L9.15,9.88L9.15,10.88L10.15,10.88L10.15,9.88ZM11.15,4.241C11.15,3.689 10.703,3.241 10.15,3.241C9.598,3.241 9.15,3.689 9.15,4.241L11.15,4.241ZM13.27,10.88C13.822,10.88 14.27,10.433 14.27,9.88C14.27,9.328 13.822,8.88 13.27,8.88L13.27,10.88ZM18.58,1.417C18.581,1.418 18.581,1.418 18.581,1.418L19.999,0.008C19.999,0.007 19.998,0.007 19.998,0.006L18.58,1.417ZM18.581,1.418C19.134,1.974 19.116,2.979 18.666,3.523L20.208,4.797C21.248,3.54 21.348,1.365 19.999,0.008L18.581,1.418ZM20,0.009C20,0.008 19.999,0.008 19.998,0.007L18.582,1.419L18.583,1.42L20,0.009ZM19.998,0.007C18.645,-1.35 16.472,-1.249 15.217,-0.203L16.498,1.333C17.037,0.884 18.031,0.866 18.582,1.419L19.998,0.007ZM15.149,-0.14L13.809,1.206L15.226,2.617L16.566,1.271L15.149,-0.14ZM18.728,3.455L17.388,4.8L18.806,6.212L20.146,4.866L18.728,3.455ZM0.002,0.006C0.002,0.007 0.001,0.007 0.001,0.008L1.419,1.418C1.419,1.418 1.419,1.418 1.42,1.417L0.002,0.006ZM0.001,0.008C-1.348,1.365 -1.248,3.54 -0.208,4.797L1.334,3.523C0.884,2.979 0.866,1.974 1.419,1.418L0.001,0.008ZM1.417,1.42C1.418,1.419 1.418,1.419 1.418,1.419L0.002,0.007C0.001,0.007 0.001,0.008 0,0.009L1.417,1.42ZM1.418,1.419C1.969,0.866 2.963,0.884 3.502,1.333L4.783,-0.203C3.528,-1.249 1.355,-1.35 0.002,0.007L1.418,1.419ZM3.434,1.271L4.774,2.617L6.191,1.206L4.851,-0.14L3.434,1.271ZM-0.146,4.866L1.194,6.212L2.612,4.8L1.272,3.455L-0.146,4.866ZM13.651,16.958L15.686,20.498L17.42,19.502L15.384,15.961L13.651,16.958ZM4.768,15.961L2.732,19.502L4.466,20.498L6.502,16.958L4.768,15.961ZM11.15,9.88L11.15,4.241L9.15,4.241L9.15,9.88L11.15,9.88ZM10.15,10.88L13.27,10.88L13.27,8.88L10.15,8.88L10.15,10.88ZM17.885,9.41C17.885,13.62 14.488,17.026 10.306,17.026L10.306,19.026C15.6,19.026 19.885,14.717 19.885,9.41L17.885,9.41ZM10.306,17.026C6.125,17.026 2.728,13.62 2.728,9.41L0.728,9.41C0.728,14.717 5.012,19.026 10.306,19.026L10.306,17.026ZM2.728,9.41C2.728,5.201 6.125,1.795 10.306,1.795L10.306,-0.205C5.012,-0.205 0.728,4.104 0.728,9.41L2.728,9.41ZM10.306,1.795C14.488,1.795 17.885,5.201 17.885,9.41L19.885,9.41C19.885,4.104 15.6,-0.205 10.306,-0.205L10.306,1.795Z" fill="#331419"/>
</svg>
