<svg width="24" height="26" viewBox="0 0 24 26" fill="none" xmlns="http://www.w3.org/2000/svg" xmlns:xlink="http://www.w3.org/1999/xlink">
<path d="M20.649,4.103L20.649,3.103L20.649,4.103ZM22,5.333L21,5.333L21,5.333L22,5.333ZM2,5.333L1,5.333L1,5.333L2,5.333ZM3.351,4.103L3.351,5.103L3.351,4.103ZM20.649,23.978L20.649,22.978L20.649,22.978L20.649,23.978ZM22,22.748L23,22.748L23,22.748L22,22.748ZM6.682,20.943L7.682,20.943L7.682,20.943L6.682,20.943ZM5.33,19.713L5.33,20.713L5.331,20.713L5.33,19.713ZM2.52,20.192L1.845,20.93L1.845,20.93L2.52,20.192ZM8.377,23.978L8.377,24.978L8.377,24.978L8.377,23.978ZM5.452,22.868L4.778,23.607L4.778,23.607L5.452,22.868ZM2.678,9.412C2.126,9.412 1.678,9.859 1.678,10.412C1.678,10.964 2.126,11.412 2.678,11.412L2.678,9.412ZM21.831,11.412C22.383,11.412 22.831,10.964 22.831,10.412C22.831,9.859 22.383,9.412 21.831,9.412L21.831,11.412ZM7.197,6.652C7.197,7.205 7.645,7.652 8.197,7.652C8.749,7.652 9.197,7.205 9.197,6.652L7.197,6.652ZM9.197,2C9.197,1.448 8.749,1 8.197,1C7.645,1 7.197,1.448 7.197,2L9.197,2ZM15.333,6.652C15.333,7.205 15.781,7.652 16.333,7.652C16.885,7.652 17.333,7.205 17.333,6.652L15.333,6.652ZM17.333,2C17.333,1.448 16.885,1 16.333,1C15.781,1 15.333,1.448 15.333,2L17.333,2ZM8.102,13.618C7.549,13.618 7.102,14.065 7.102,14.618C7.102,15.17 7.549,15.618 8.102,15.618L8.102,13.618ZM8.271,15.618C8.823,15.618 9.271,15.17 9.271,14.618C9.271,14.065 8.823,13.618 8.271,13.618L8.271,15.618ZM8.102,17.176C7.549,17.176 7.102,17.624 7.102,18.176C7.102,18.729 7.549,19.176 8.102,19.176L8.102,17.176ZM8.271,19.176C8.823,19.176 9.271,18.729 9.271,18.176C9.271,17.624 8.823,17.176 8.271,17.176L8.271,19.176ZM12.169,13.618C11.617,13.618 11.169,14.065 11.169,14.618C11.169,15.17 11.617,15.618 12.169,15.618L12.169,13.618ZM12.339,15.618C12.891,15.618 13.339,15.17 13.339,14.618C13.339,14.065 12.891,13.618 12.339,13.618L12.339,15.618ZM12.169,17.176C11.617,17.176 11.169,17.624 11.169,18.176C11.169,18.729 11.617,19.176 12.169,19.176L12.169,17.176ZM12.339,19.176C12.891,19.176 13.339,18.729 13.339,18.176C13.339,17.624 12.891,17.176 12.339,17.176L12.339,19.176ZM16.237,13.618C15.685,13.618 15.237,14.065 15.237,14.618C15.237,15.17 15.685,15.618 16.237,15.618L16.237,13.618ZM16.407,15.618C16.959,15.618 17.407,15.17 17.407,14.618C17.407,14.065 16.959,13.618 16.407,13.618L16.407,15.618ZM16.237,17.176C15.685,17.176 15.237,17.624 15.237,18.176C15.237,18.729 15.685,19.176 16.237,19.176L16.237,17.176ZM16.407,19.176C16.959,19.176 17.407,18.729 17.407,18.176C17.407,17.624 16.959,17.176 16.407,17.176L16.407,19.176ZM20.649,22.978L8.377,22.978L8.377,24.978L20.649,24.978L20.649,22.978ZM3,19.026L3,5.333L1,5.333L1,19.026L3,19.026ZM3.351,5.103L20.649,5.103L20.649,3.103L3.351,3.103L3.351,5.103ZM21,5.333L21,22.748L23,22.748L23,5.333L21,5.333ZM20.649,5.103C20.775,5.103 20.872,5.149 20.931,5.203C20.988,5.255 21,5.302 21,5.333L23,5.333C23,4.016 21.857,3.103 20.649,3.103L20.649,5.103ZM3,5.333C3,5.302 3.012,5.255 3.069,5.203C3.128,5.149 3.225,5.103 3.351,5.103L3.351,3.103C2.143,3.103 1,4.016 1,5.333L3,5.333ZM6.125,22.128C5.171,21.26 3.898,20.096 3.195,19.454L1.845,20.93C2.548,21.572 3.823,22.738 4.778,23.607L6.125,22.128ZM20.649,24.978C21.857,24.978 23,24.065 23,22.748L21,22.748C21,22.779 20.988,22.826 20.931,22.878C20.872,22.932 20.775,22.978 20.649,22.978L20.649,24.978ZM5.682,20.943L5.682,24L7.682,24L7.682,20.943L5.682,20.943ZM2,20.713L5.33,20.713L5.33,18.713L2,18.713L2,20.713ZM7.682,20.943C7.682,19.624 6.538,18.711 5.329,18.713L5.331,20.713C5.457,20.712 5.554,20.759 5.613,20.812C5.67,20.864 5.682,20.911 5.682,20.943L7.682,20.943ZM1,19.026C1,19.754 1.309,20.439 1.845,20.93L3.195,19.454C3.064,19.334 3,19.18 3,19.026L1,19.026ZM8.377,22.978C8.064,22.978 7.625,22.89 7.171,22.719C6.716,22.547 6.342,22.325 6.125,22.128L4.778,23.607C5.239,24.026 5.859,24.36 6.463,24.589C7.07,24.819 7.754,24.978 8.377,24.978L8.377,22.978ZM2.678,11.412L21.831,11.412L21.831,9.412L2.678,9.412L2.678,11.412ZM9.197,6.652L9.197,2L7.197,2L7.197,6.652L9.197,6.652ZM17.333,6.652L17.333,2L15.333,2L15.333,6.652L17.333,6.652ZM8.102,15.618L8.271,15.618L8.271,13.618L8.102,13.618L8.102,15.618ZM8.102,19.176L8.271,19.176L8.271,17.176L8.102,17.176L8.102,19.176ZM12.169,15.618L12.339,15.618L12.339,13.618L12.169,13.618L12.169,15.618ZM12.169,19.176L12.339,19.176L12.339,17.176L12.169,17.176L12.169,19.176ZM16.237,15.618L16.407,15.618L16.407,13.618L16.237,13.618L16.237,15.618ZM16.237,19.176L16.407,19.176L16.407,17.176L16.237,17.176L16.237,19.176Z" fill="#FFFFFF"/>
</svg>
