<svg width="38" height="38" viewBox="0 0 38 38" fill="none" xmlns="http://www.w3.org/2000/svg" xmlns:xlink="http://www.w3.org/1999/xlink">
<path d="M15.507,2L15.507,1C14.955,1 14.507,1.448 14.507,2L15.507,2ZM22.493,2L23.493,2C23.493,1.448 23.045,1 22.493,1L22.493,2ZM22.493,36L22.493,37C23.045,37 23.493,36.552 23.493,36L22.493,36ZM15.507,36L14.507,36C14.507,36.552 14.955,37 15.507,37L15.507,36ZM36,15.507L37,15.507C37,14.955 36.552,14.507 36,14.507L36,15.507ZM36,22.493L36,23.493C36.265,23.493 36.52,23.388 36.707,23.2C36.895,23.013 37,22.758 37,22.493L36,22.493ZM2,22.493L1,22.493C1,23.045 1.448,23.493 2,23.493L2,22.493ZM2,15.507L2,14.507C1.735,14.507 1.48,14.612 1.293,14.8C1.105,14.987 1,15.242 1,15.507L2,15.507ZM28.551,4.509L29.258,3.802C28.869,3.413 28.239,3.411 27.848,3.798L28.551,4.509ZM33.491,9.449L34.202,10.152C34.589,9.761 34.587,9.131 34.198,8.742L33.491,9.449ZM9.449,33.491L8.742,34.198C9.131,34.587 9.762,34.589 10.153,34.202L9.449,33.491ZM4.509,28.551L3.798,27.847C3.411,28.238 3.413,28.869 3.802,29.258L4.509,28.551ZM33.491,28.551L34.198,29.258C34.583,28.873 34.589,28.25 34.211,27.857L33.491,28.551ZM28.551,33.491L27.838,34.192C28.025,34.382 28.28,34.49 28.547,34.491C28.813,34.492 29.069,34.387 29.258,34.198L28.551,33.491ZM4.509,9.449L3.802,8.742C3.615,8.93 3.509,9.184 3.509,9.449C3.509,9.714 3.615,9.969 3.802,10.156L4.509,9.449ZM9.449,4.509L10.156,3.802C9.766,3.412 9.133,3.412 8.742,3.802L9.449,4.509ZM30.268,22.493L30.268,21.493L29.55,21.493L29.32,22.173L30.268,22.493ZM29.45,24.356L28.573,23.875L28.22,24.52L28.73,25.05L29.45,24.356ZM24.356,29.226L25.069,28.525L24.563,28.011L23.916,28.328L24.356,29.226ZM22.493,29.948L22.214,28.988L21.493,29.198L21.493,29.948L22.493,29.948ZM15.507,29.802L16.507,29.802L16.507,29.084L15.827,28.855L15.507,29.802ZM13.877,29.109L14.337,28.221L13.691,27.886L13.173,28.398L13.877,29.109ZM8.891,24.123L9.602,24.827L10.114,24.309L9.779,23.663L8.891,24.123ZM8.198,22.493L9.145,22.173L8.916,21.493L8.198,21.493L8.198,22.493ZM8.052,15.507L8.052,16.507L8.802,16.507L9.012,15.786L8.052,15.507ZM8.751,13.691L9.651,14.127L9.961,13.487L9.458,12.984L8.751,13.691ZM13.545,8.605L12.838,9.312L13.373,9.848L14.034,9.477L13.545,8.605ZM15.507,7.732L15.827,8.68L16.507,8.45L16.507,7.732L15.507,7.732ZM22.493,7.586L21.493,7.586L21.493,8.336L22.214,8.546L22.493,7.586ZM24.589,8.426L24.128,9.313L24.774,9.649L25.292,9.137L24.589,8.426ZM29.574,13.411L28.863,12.708L28.352,13.226L28.687,13.872L29.574,13.411ZM30.414,15.507L29.454,15.786L29.664,16.507L30.414,16.507L30.414,15.507ZM15.507,3L22.493,3L22.493,1L15.507,1L15.507,3ZM22.493,35L15.507,35L15.507,37L22.493,37L22.493,35ZM35,15.507L35,22.493L37,22.493L37,15.507L35,15.507ZM3,22.493L3,15.507L1,15.507L1,22.493L3,22.493ZM27.844,5.216L32.784,10.156L34.198,8.742L29.258,3.802L27.844,5.216ZM10.156,32.784L5.216,27.844L3.802,29.258L8.742,34.198L10.156,32.784ZM32.784,27.844L27.844,32.784L29.258,34.198L34.198,29.258L32.784,27.844ZM5.216,10.156L10.156,5.216L8.742,3.802L3.802,8.742L5.216,10.156ZM29.32,22.173C29.12,22.766 28.87,23.335 28.573,23.875L30.327,24.837C30.679,24.194 30.977,23.518 31.215,22.813L29.32,22.173ZM23.916,28.328C23.373,28.595 22.804,28.816 22.214,28.988L22.773,30.909C23.475,30.704 24.151,30.441 24.797,30.124L23.916,28.328ZM15.827,28.855C15.312,28.681 14.814,28.468 14.337,28.221L13.416,29.996C13.983,30.29 14.574,30.543 15.187,30.75L15.827,28.855ZM9.779,23.663C9.532,23.186 9.319,22.688 9.145,22.173L7.25,22.813C7.457,23.426 7.71,24.017 8.004,24.584L9.779,23.663ZM9.012,15.786C9.179,15.212 9.393,14.657 9.651,14.127L7.851,13.254C7.545,13.885 7.29,14.544 7.091,15.227L9.012,15.786ZM14.034,9.477C14.602,9.159 15.201,8.891 15.827,8.68L15.187,6.785C14.443,7.036 13.73,7.354 13.056,7.733L14.034,9.477ZM22.214,8.546C22.881,8.74 23.522,8.998 24.128,9.313L25.05,7.538C24.329,7.164 23.567,6.857 22.773,6.626L22.214,8.546ZM28.687,13.872C29.002,14.478 29.26,15.119 29.454,15.786L31.374,15.227C31.143,14.433 30.836,13.671 30.462,12.95L28.687,13.872ZM16.507,7.732L16.507,2L14.507,2L14.507,7.732L16.507,7.732ZM21.493,2L21.493,7.586L23.493,7.586L23.493,2L21.493,2ZM8.742,5.216L12.838,9.312L14.252,7.898L10.156,3.802L8.742,5.216ZM9.458,12.984L5.216,8.742L3.802,10.156L8.044,14.398L9.458,12.984ZM25.292,9.137L29.254,5.22L27.848,3.798L23.886,7.714L25.292,9.137ZM32.78,8.746L28.863,12.708L30.286,14.114L34.202,10.152L32.78,8.746ZM30.414,16.507L36,16.507L36,14.507L30.414,14.507L30.414,16.507ZM36,21.493L30.268,21.493L30.268,23.493L36,23.493L36,21.493ZM28.73,25.05L32.771,29.245L34.211,27.857L30.17,23.662L28.73,25.05ZM29.264,32.79L25.069,28.525L23.643,29.927L27.838,34.192L29.264,32.79ZM21.493,29.948L21.493,36L23.493,36L23.493,29.948L21.493,29.948ZM16.507,36L16.507,29.802L14.507,29.802L14.507,36L16.507,36ZM13.173,28.398L8.746,32.78L10.153,34.202L14.58,29.819L13.173,28.398ZM5.22,29.254L9.602,24.827L8.181,23.42L3.798,27.847L5.22,29.254ZM8.198,21.493L2,21.493L2,23.493L8.198,23.493L8.198,21.493ZM2,16.507L8.052,16.507L8.052,14.507L2,14.507L2,16.507ZM22.845,18.169C23.275,20.318 21.891,22.339 19.763,22.706L20.104,24.677C23.353,24.116 25.454,21.016 24.806,17.777L22.845,18.169ZM19.763,22.706C17.615,23.077 15.504,21.626 15.07,19.457L13.109,19.849C13.753,23.069 16.875,25.234 20.104,24.677L19.763,22.706ZM15.07,19.457C14.64,17.308 16.024,15.287 18.151,14.92L17.811,12.949C14.561,13.51 12.461,16.61 13.109,19.849L15.07,19.457ZM18.151,14.92C20.299,14.549 22.411,16 22.845,18.169L24.806,17.777C24.162,14.557 21.04,12.392 17.811,12.949L18.151,14.92Z" fill="#000000"/>
</svg>
