<svg width="40" height="46" viewBox="0 0 40 46" fill="none" xmlns="http://www.w3.org/2000/svg" xmlns:xlink="http://www.w3.org/1999/xlink">
<path d="M35.568,6.015L35.568,5.015L35.568,6.015ZM38,8.364L37,8.364L37,8.364L38,8.364ZM2,8.364L1,8.364L1,8.364L2,8.364ZM4.432,6.015L4.432,7.015L4.432,6.015ZM35.568,43.958L35.568,42.958L35.568,42.958L35.568,43.958ZM38,41.609L39,41.609L39,41.609L38,41.609ZM10.428,38.164L11.428,38.164L11.428,38.164L10.428,38.164ZM7.994,35.815L7.994,36.815L7.995,36.815L7.994,35.815ZM2.936,36.73L2.24,37.448L2.936,36.73ZM13.479,43.958L13.479,44.958L13.479,44.958L13.479,43.958ZM8.213,41.838L7.518,42.557L7.518,42.557L8.213,41.838ZM3.22,17.059C2.668,17.059 2.22,17.507 2.22,18.059C2.22,18.611 2.668,19.059 3.22,19.059L3.22,17.059ZM37.695,19.059C38.247,19.059 38.695,18.611 38.695,18.059C38.695,17.507 38.247,17.059 37.695,17.059L37.695,19.059ZM12.155,10.882C12.155,11.434 12.603,11.882 13.155,11.882C13.707,11.882 14.155,11.434 14.155,10.882L12.155,10.882ZM14.155,2C14.155,1.448 13.707,1 13.155,1C12.603,1 12.155,1.448 12.155,2L14.155,2ZM26.799,10.882C26.799,11.434 27.247,11.882 27.799,11.882C28.351,11.882 28.799,11.434 28.799,10.882L26.799,10.882ZM28.799,2C28.799,1.448 28.351,1 27.799,1C27.247,1 26.799,1.448 26.799,2L28.799,2ZM12.983,25.088C12.431,25.088 11.983,25.536 11.983,26.088C11.983,26.641 12.431,27.088 12.983,27.088L12.983,25.088ZM13.288,27.088C13.84,27.088 14.288,26.641 14.288,26.088C14.288,25.536 13.84,25.088 13.288,25.088L13.288,27.088ZM12.983,31.882C12.431,31.882 11.983,32.33 11.983,32.882C11.983,33.435 12.431,33.882 12.983,33.882L12.983,31.882ZM13.288,33.882C13.84,33.882 14.288,33.435 14.288,32.882C14.288,32.33 13.84,31.882 13.288,31.882L13.288,33.882ZM20.305,25.088C19.753,25.088 19.305,25.536 19.305,26.088C19.305,26.641 19.753,27.088 20.305,27.088L20.305,25.088ZM20.61,27.088C21.162,27.088 21.61,26.641 21.61,26.088C21.61,25.536 21.162,25.088 20.61,25.088L20.61,27.088ZM20.305,31.882C19.753,31.882 19.305,32.33 19.305,32.882C19.305,33.435 19.753,33.882 20.305,33.882L20.305,31.882ZM20.61,33.882C21.162,33.882 21.61,33.435 21.61,32.882C21.61,32.33 21.162,31.882 20.61,31.882L20.61,33.882ZM27.627,25.088C27.075,25.088 26.627,25.536 26.627,26.088C26.627,26.641 27.075,27.088 27.627,27.088L27.627,25.088ZM27.932,27.088C28.484,27.088 28.932,26.641 28.932,26.088C28.932,25.536 28.484,25.088 27.932,25.088L27.932,27.088ZM27.627,31.882C27.075,31.882 26.627,32.33 26.627,32.882C26.627,33.435 27.075,33.882 27.627,33.882L27.627,31.882ZM27.932,33.882C28.484,33.882 28.932,33.435 28.932,32.882C28.932,32.33 28.484,31.882 27.932,31.882L27.932,33.882ZM35.568,42.958L13.479,42.958L13.479,44.958L35.568,44.958L35.568,42.958ZM3,34.504L3,8.364L1,8.364L1,34.504L3,34.504ZM4.432,7.015L35.568,7.015L35.568,5.015L4.432,5.015L4.432,7.015ZM37,8.364L37,41.609L39,41.609L39,8.364L37,8.364ZM35.568,7.015C36.392,7.015 37,7.651 37,8.364L39,8.364C39,6.482 37.431,5.015 35.568,5.015L35.568,7.015ZM3,8.364C3,7.651 3.608,7.015 4.432,7.015L4.432,5.015C2.569,5.015 1,6.482 1,8.364L3,8.364ZM8.907,41.119C7.191,39.461 4.898,37.238 3.633,36.012L2.24,37.448C3.505,38.674 5.8,40.898 7.518,42.557L8.907,41.119ZM35.568,44.958C37.431,44.958 39,43.491 39,41.609L37,41.609C37,42.322 36.392,42.958 35.568,42.958L35.568,44.958ZM9.428,38.164L9.428,44L11.428,44L11.428,38.164L9.428,38.164ZM2,36.815L7.994,36.815L7.994,34.815L2,34.815L2,36.815ZM11.428,38.164C11.428,36.28 9.856,34.813 7.992,34.815L7.995,36.815C8.819,36.814 9.428,37.451 9.428,38.164L11.428,38.164ZM1,34.504C1,35.612 1.443,36.674 2.24,37.448L3.633,36.012C3.229,35.62 3,35.079 3,34.504L1,34.504ZM13.479,42.958C12.801,42.958 11.918,42.763 11.044,42.411C10.169,42.06 9.397,41.591 8.907,41.119L7.518,42.557C8.248,43.262 9.266,43.853 10.299,44.267C11.331,44.682 12.472,44.958 13.479,44.958L13.479,42.958ZM3.22,19.059L37.695,19.059L37.695,17.059L3.22,17.059L3.22,19.059ZM14.155,10.882L14.155,2L12.155,2L12.155,10.882L14.155,10.882ZM28.799,10.882L28.799,2L26.799,2L26.799,10.882L28.799,10.882ZM12.983,27.088L13.288,27.088L13.288,25.088L12.983,25.088L12.983,27.088ZM12.983,33.882L13.288,33.882L13.288,31.882L12.983,31.882L12.983,33.882ZM20.305,27.088L20.61,27.088L20.61,25.088L20.305,25.088L20.305,27.088ZM20.305,33.882L20.61,33.882L20.61,31.882L20.305,31.882L20.305,33.882ZM27.627,27.088L27.932,27.088L27.932,25.088L27.627,25.088L27.627,27.088ZM27.627,33.882L27.932,33.882L27.932,31.882L27.627,31.882L27.627,33.882Z" fill="#FFFFFF"/>
</svg>
