<svg width="14" height="12" viewBox="0 0 14 12" fill="none" xmlns="http://www.w3.org/2000/svg" xmlns:xlink="http://www.w3.org/1999/xlink">
<path d="M2.781,5.388C2.436,4.957 1.807,4.887 1.376,5.231C0.944,5.576 0.874,6.205 1.219,6.637L2.781,5.388ZM4.654,9.333L3.873,9.958C4.052,10.182 4.319,10.318 4.606,10.332C4.892,10.346 5.171,10.236 5.371,10.03L4.654,9.333ZM12.495,2.697C12.88,2.301 12.871,1.668 12.475,1.283C12.078,0.898 11.445,0.907 11.061,1.303L12.495,2.697ZM1.219,6.637L3.873,9.958L5.435,8.709L2.781,5.388L1.219,6.637ZM5.371,10.03L12.495,2.697L11.061,1.303L3.937,8.637L5.371,10.03Z" fill="#331419"/>
</svg>
