<svg width="32" height="40" viewBox="0 0 32 40" fill="none" xmlns="http://www.w3.org/2000/svg" xmlns:xlink="http://www.w3.org/1999/xlink">
<path d="M12.91,23.027C13.242,22.585 13.152,21.958 12.711,21.627C12.269,21.295 11.642,21.384 11.311,21.826L12.91,23.027ZM8.228,25.932C7.897,26.374 7.986,27.001 8.428,27.332C8.869,27.664 9.496,27.575 9.828,27.133L8.228,25.932ZM6.392,23.188C5.958,22.846 5.329,22.921 4.987,23.356C4.646,23.79 4.721,24.418 5.156,24.76L6.392,23.188ZM11.913,30.073C12.347,30.414 12.976,30.339 13.317,29.905C13.658,29.471 13.583,28.842 13.149,28.501L11.913,30.073ZM4.775,36.935L5.574,37.535L5.574,37.535L4.775,36.935ZM0.551,33.614L-0.248,33.014L0.551,33.614ZM1.041,37.436L0.423,38.222L1.041,37.436ZM26.917,19.561C23.54,24.06 17.256,24.897 12.872,21.45L11.636,23.022C16.911,27.169 24.473,26.149 28.516,20.762L26.917,19.561ZM12.872,21.45C8.474,17.992 7.639,11.523 11.027,7.011L9.427,5.81C5.394,11.183 6.374,18.885 11.636,23.022L12.872,21.45ZM11.027,7.011C14.404,2.512 20.688,1.676 25.072,5.123L26.308,3.551C21.033,-0.597 13.471,0.424 9.427,5.81L11.027,7.011ZM25.072,5.123C29.47,8.581 30.304,15.049 26.917,19.561L28.516,20.762C32.55,15.389 31.569,7.687 26.308,3.551L25.072,5.123ZM11.311,21.826L8.228,25.932L9.828,27.133L12.91,23.027L11.311,21.826ZM5.156,24.76L11.913,30.073L13.149,28.501L6.392,23.188L5.156,24.76ZM10.464,27.69L3.975,36.335L5.574,37.535L12.064,28.891L10.464,27.69ZM1.351,34.215L7.84,25.57L6.241,24.37L-0.248,33.014L1.351,34.215ZM1.659,36.65C0.924,36.072 0.778,34.978 1.351,34.215L-0.248,33.014C-1.467,34.638 -1.175,36.966 0.423,38.222L1.659,36.65ZM3.975,36.335C3.412,37.084 2.379,37.216 1.659,36.65L0.423,38.222C2.034,39.489 4.345,39.173 5.574,37.535L3.975,36.335Z" fill="#331419"/>
</svg>
