<svg width="26" height="22" viewBox="0 0 26 22" fill="none" xmlns="http://www.w3.org/2000/svg" xmlns:xlink="http://www.w3.org/1999/xlink">
<path d="M11.389,1.716L12.118,1.031L12.118,1.031L11.389,1.716ZM3.611,1.716L4.34,2.4L4.34,2.4L3.611,1.716ZM13,3.431L12.271,4.116L13,4.892L13.729,4.116L13,3.431ZM14.611,1.716L13.882,1.031L13.882,1.031L14.611,1.716ZM22.389,1.716L23.118,1.031L23.118,1.031L22.389,1.716ZM22.389,10L23.118,10.684L23.118,10.684L22.389,10ZM13,20L12.271,20.684L13,21.461L13.729,20.684L13,20ZM3.611,10L4.34,9.316L4.34,9.316L3.611,10ZM12.118,1.031C9.575,-1.677 5.425,-1.677 2.882,1.031L4.34,2.4C6.093,0.533 8.907,0.533 10.66,2.4L12.118,1.031ZM13.729,2.747L12.118,1.031L10.66,2.4L12.271,4.116L13.729,2.747ZM13.882,1.031L12.271,2.747L13.729,4.116L15.34,2.4L13.882,1.031ZM23.118,1.031C20.575,-1.677 16.425,-1.677 13.882,1.031L15.34,2.4C17.093,0.533 19.907,0.533 21.66,2.4L23.118,1.031ZM23.118,10.684C25.627,8.012 25.627,3.704 23.118,1.031L21.66,2.4C23.447,4.303 23.447,7.413 21.66,9.316L23.118,10.684ZM2.882,1.031C0.373,3.704 0.373,8.012 2.882,10.684L4.34,9.316C2.553,7.413 2.553,4.303 4.34,2.4L2.882,1.031ZM13.729,20.684L23.118,10.684L21.66,9.316L12.271,19.316L13.729,20.684ZM2.882,10.684L12.271,20.684L13.729,19.316L4.34,9.316L2.882,10.684Z" fill="#331419"/>
</svg>
