<svg width="32" height="22" viewBox="0 0 32 22" fill="none" xmlns="http://www.w3.org/2000/svg" xmlns:xlink="http://www.w3.org/1999/xlink">
<path d="M30,7C30.552,7 31,6.552 31,6C31,5.448 30.552,5 30,5L30,7ZM2,5C1.448,5 1,5.448 1,6C1,6.552 1.448,7 2,7L2,5ZM30,17C30.552,17 31,16.552 31,16C31,15.448 30.552,15 30,15L30,17ZM2,15C1.448,15 1,15.448 1,16C1,16.552 1.448,17 2,17L2,15ZM14,7L30,7L30,5L14,5L14,7ZM2,7L6,7L6,5L2,5L2,7ZM24,17L30,17L30,15L24,15L24,17ZM2,17L16,17L16,15L2,15L2,17ZM13,6C13,7.657 11.657,9 10,9L10,11C12.761,11 15,8.761 15,6L13,6ZM10,9C8.343,9 7,7.657 7,6L5,6C5,8.761 7.239,11 10,11L10,9ZM7,6C7,4.343 8.343,3 10,3L10,1C7.239,1 5,3.239 5,6L7,6ZM10,3C11.657,3 13,4.343 13,6L15,6C15,3.239 12.761,1 10,1L10,3ZM23,16C23,17.657 21.657,19 20,19L20,21C22.761,21 25,18.761 25,16L23,16ZM20,19C18.343,19 17,17.657 17,16L15,16C15,18.761 17.239,21 20,21L20,19ZM17,16C17,14.343 18.343,13 20,13L20,11C17.239,11 15,13.239 15,16L17,16ZM20,13C21.657,13 23,14.343 23,16L25,16C25,13.239 22.761,11 20,11L20,13Z" fill="#000000"/>
</svg>
