<svg width="42" height="46" viewBox="0 0 42 46" fill="none" xmlns="http://www.w3.org/2000/svg" xmlns:xlink="http://www.w3.org/1999/xlink">
<path d="M26.971,29.132L26.971,28.132L26.971,29.132ZM40,41.876L41,41.876L40,41.876ZM2,41.876L1,41.876L2,41.876ZM14.486,29.132L14.486,28.132L14.486,28.132L14.486,29.132ZM4.171,44L4.171,43L4.171,44ZM37.829,44L37.829,43L37.829,43L37.829,44ZM30.548,12.387C31.138,17.985 27.15,22.84 21.672,23.275L21.831,25.268C28.461,24.742 33.241,18.861 32.537,12.178L30.548,12.387ZM21.672,23.275C16.174,23.711 11.205,19.535 10.613,13.919L8.624,14.128C9.326,20.793 15.221,25.793 21.831,25.268L21.672,23.275ZM10.613,13.919C10.024,8.321 14.012,3.466 19.489,3.031L19.331,1.038C12.7,1.564 7.921,7.445 8.624,14.128L10.613,13.919ZM19.489,3.031C24.988,2.595 29.957,6.771 30.548,12.387L32.537,12.178C31.835,5.513 25.941,0.513 19.331,1.038L19.489,3.031ZM26.971,30.132C32.779,30.132 35.66,31.677 37.16,33.708C38.712,35.81 39,38.691 39,41.876L41,41.876C41,38.689 40.745,35.198 38.769,32.521C36.74,29.773 33.106,28.132 26.971,28.132L26.971,30.132ZM3,41.876C3,36.942 4.067,34.103 5.864,32.458C7.681,30.796 10.477,30.132 14.486,30.132L14.486,28.132C10.352,28.132 6.905,28.795 4.514,30.983C2.105,33.188 1,36.721 1,41.876L3,41.876ZM4.171,45L37.829,45L37.829,43L4.171,43L4.171,45ZM39,41.876C39,42.476 38.496,43 37.829,43L37.829,45C39.559,45 41,43.622 41,41.876L39,41.876ZM1,41.876C1,43.622 2.441,45 4.171,45L4.171,43C3.503,43 3,42.476 3,41.876L1,41.876ZM14.486,30.132L26.971,30.132L26.971,28.132L14.486,28.132L14.486,30.132Z" fill="#FFFFFF"/>
</svg>
