<svg width="52" height="46" viewBox="0 0 52 46" fill="none" xmlns="http://www.w3.org/2000/svg" xmlns:xlink="http://www.w3.org/1999/xlink">
<path d="M46.082,32.269L45.293,31.654C45.069,31.942 45.019,32.328 45.162,32.662L46.082,32.269ZM39.662,37.598L39.997,36.655C39.735,36.562 39.447,36.582 39.201,36.71L39.662,37.598ZM48.506,40.733L48.172,41.675C48.213,41.69 48.256,41.702 48.299,41.711L48.506,40.733ZM49.334,39.869L50.289,39.571C50.279,39.539 50.267,39.507 50.253,39.475L49.334,39.869ZM5.063,37.37L5.983,37.763C6.126,37.429 6.076,37.043 5.852,36.755L5.063,37.37ZM10.082,41.536L10.544,40.649C10.297,40.521 10.009,40.501 9.748,40.593L10.082,41.536ZM3.168,43.987L3.375,44.966C3.418,44.956 3.461,44.944 3.502,44.93L3.168,43.987ZM2.521,43.312L1.601,42.918C1.588,42.95 1.576,42.982 1.566,43.014L2.521,43.312ZM11.025,16.128C11.524,15.892 11.737,15.295 11.501,14.796C11.264,14.297 10.668,14.085 10.169,14.321L11.025,16.128ZM27.306,41.108C27.752,40.782 27.85,40.156 27.524,39.71C27.198,39.264 26.572,39.167 26.126,39.493L27.306,41.108ZM49,20.934C49,24.952 47.624,28.661 45.293,31.654L46.871,32.883C49.461,29.557 51,25.419 51,20.934L49,20.934ZM30.299,3C40.665,3 49,11.067 49,20.934L51,20.934C51,9.888 41.694,1 30.299,1L30.299,3ZM11.597,20.934C11.597,11.067 19.932,3 30.299,3L30.299,1C18.903,1 9.597,9.888 9.597,20.934L11.597,20.934ZM30.299,38.869C19.932,38.869 11.597,30.802 11.597,20.934L9.597,20.934C9.597,31.981 18.903,40.869 30.299,40.869L30.299,38.869ZM39.201,36.71C36.556,38.086 33.525,38.869 30.299,38.869L30.299,40.869C33.851,40.869 37.198,40.006 40.124,38.485L39.201,36.71ZM39.328,38.54L48.172,41.675L48.84,39.79L39.997,36.655L39.328,38.54ZM48.299,41.711C49.506,41.966 50.692,40.864 50.289,39.571L48.379,40.166C48.339,40.037 48.386,39.909 48.454,39.838C48.52,39.769 48.62,39.735 48.713,39.754L48.299,41.711ZM50.253,39.475L47.001,31.875L45.162,32.662L48.415,40.262L50.253,39.475ZM1,28.508C1,32.065 2.221,35.347 4.274,37.984L5.852,36.755C4.058,34.452 3,31.598 3,28.508L1,28.508ZM9.621,42.423C11.938,43.629 14.59,44.312 17.403,44.312L17.403,42.312C14.916,42.312 12.581,41.708 10.544,40.649L9.621,42.423ZM9.748,40.593L2.834,43.045L3.502,44.93L10.416,42.479L9.748,40.593ZM2.961,43.009C3.111,42.977 3.265,43.031 3.366,43.136C3.469,43.244 3.533,43.425 3.475,43.609L1.566,43.014C1.197,44.198 2.283,45.196 3.375,44.966L2.961,43.009ZM3.44,43.705L5.983,37.763L4.144,36.976L1.601,42.918L3.44,43.705ZM10.169,14.321C4.755,16.888 1,22.264 1,28.508L3,28.508C3,23.098 6.253,18.391 11.025,16.128L10.169,14.321ZM17.403,44.312C21.119,44.312 24.552,43.12 27.306,41.108L26.126,39.493C23.708,41.26 20.687,42.312 17.403,42.312L17.403,44.312Z" fill="#FFFFFF"/>
</svg>
