<svg width="50" height="50" viewBox="0 0 50 50" fill="none" xmlns="http://www.w3.org/2000/svg" xmlns:xlink="http://www.w3.org/1999/xlink">
<path d="M5.61,24.139L5.61,23.139L5.61,24.139ZM3.357,17.897L3.972,18.685L3.972,18.685L3.357,17.897ZM46.643,17.897L46.028,18.685L46.028,18.685L46.643,17.897ZM44.39,24.139L44.39,25.139L44.39,24.139ZM27.254,2.771L27.869,1.982L27.869,1.982L27.254,2.771ZM22.746,2.771L22.131,1.982L22.131,1.982L22.746,2.771ZM25,34.537L25,35.537L25,34.537ZM31.325,40.612L32.325,40.612L32.325,40.612L31.325,40.612ZM18.675,40.612L17.675,40.612L17.675,40.612L18.675,40.612ZM17.675,48C17.675,48.552 18.123,49 18.675,49C19.227,49 19.675,48.552 19.675,48L17.675,48ZM30.325,48C30.325,48.552 30.773,49 31.325,49C31.877,49 32.325,48.552 32.325,48L30.325,48ZM41.656,23.772L41.656,44.493L43.656,44.493L43.656,23.772L41.656,23.772ZM39.053,47L11.668,47L11.668,49L39.053,49L39.053,47ZM9.064,44.493L9.064,23.772L7.064,23.772L7.064,44.493L9.064,44.493ZM11.668,47C10.204,47 9.064,45.852 9.064,44.493L7.064,44.493C7.064,47.008 9.151,49 11.668,49L11.668,47ZM41.656,44.493C41.656,45.852 40.517,47 39.053,47L39.053,49C41.569,49 43.656,47.008 43.656,44.493L41.656,44.493ZM26.639,3.559L46.028,18.685L47.258,17.108L27.869,1.982L26.639,3.559ZM44.39,23.139L5.61,23.139L5.61,25.139L44.39,25.139L44.39,23.139ZM3.972,18.685L23.361,3.559L22.131,1.982L2.742,17.108L3.972,18.685ZM5.61,23.139C3.095,23.139 2.115,20.134 3.972,18.685L2.742,17.108C-0.714,19.804 1.317,25.139 5.61,25.139L5.61,23.139ZM46.028,18.685C47.885,20.134 46.905,23.139 44.39,23.139L44.39,25.139C48.683,25.139 50.714,19.804 47.258,17.108L46.028,18.685ZM27.869,1.982C26.19,0.673 23.81,0.673 22.131,1.982L23.361,3.559C24.317,2.814 25.683,2.814 26.639,3.559L27.869,1.982ZM25,35.537C27.979,35.537 30.325,37.847 30.325,40.612L32.325,40.612C32.325,36.667 29.007,33.537 25,33.537L25,35.537ZM19.675,40.612C19.675,37.847 22.021,35.537 25,35.537L25,33.537C20.993,33.537 17.675,36.667 17.675,40.612L19.675,40.612ZM19.675,48L19.675,40.612L17.675,40.612L17.675,48L19.675,48ZM30.325,40.612L30.325,48L32.325,48L32.325,40.612L30.325,40.612Z" fill="#D9CAC9"/>
</svg>
