<svg width="24" height="24" viewBox="0 0 24 24" fill="none" xmlns="http://www.w3.org/2000/svg" xmlns:xlink="http://www.w3.org/1999/xlink">
<path d="M20.011,17.623L19.217,17.015C18.999,17.3 18.95,17.68 19.089,18.011L20.011,17.623ZM16.753,20.373L17.092,19.432C16.827,19.337 16.534,19.358 16.285,19.489L16.753,20.373ZM21.241,21.991L20.902,22.932C20.944,22.947 20.987,22.96 21.031,22.969L21.241,21.991ZM21.662,21.545L22.618,21.252C22.608,21.22 22.597,21.189 22.583,21.158L21.662,21.545ZM7.424,11C6.871,11 6.424,11.448 6.424,12C6.424,12.552 6.871,13 7.424,13L7.424,11ZM7.593,13C8.145,13 8.593,12.552 8.593,12C8.593,11.448 8.145,11 7.593,11L7.593,13ZM11.83,11C11.278,11 10.83,11.448 10.83,12C10.83,12.552 11.278,13 11.83,13L11.83,11ZM12,13C12.552,13 13,12.552 13,12C13,11.448 12.552,11 12,11L12,13ZM16.237,11C15.685,11 15.237,11.448 15.237,12C15.237,12.552 15.685,13 16.237,13L16.237,11ZM16.407,13C16.959,13 17.407,12.552 17.407,12C17.407,11.448 16.959,11 16.407,11L16.407,13ZM21,11.773C21,13.737 20.338,15.551 19.217,17.015L20.805,18.231C22.182,16.433 23,14.196 23,11.773L21,11.773ZM12,3C16.992,3 21,6.949 21,11.773L23,11.773C23,5.802 18.053,1 12,1L12,3ZM3,11.773C3,6.949 7.008,3 12,3L12,1C5.947,1 1,5.802 1,11.773L3,11.773ZM12,20.545C7.008,20.545 3,16.596 3,11.773L1,11.773C1,17.744 5.947,22.545 12,22.545L12,20.545ZM16.285,19.489C15.013,20.162 13.554,20.545 12,20.545L12,22.545C13.886,22.545 15.665,22.08 17.22,21.257L16.285,19.489ZM16.414,21.314L20.902,22.932L21.581,21.051L17.092,19.432L16.414,21.314ZM21.031,22.969C22.01,23.179 22.931,22.273 22.618,21.252L20.706,21.838C20.551,21.332 21.007,20.918 21.451,21.014L21.031,22.969ZM22.583,21.158L20.933,17.235L19.089,18.011L20.74,21.933L22.583,21.158ZM7.424,13L7.593,13L7.593,11L7.424,11L7.424,13ZM11.83,13L12,13L12,11L11.83,11L11.83,13ZM16.237,13L16.407,13L16.407,11L16.237,11L16.237,13Z" fill="#331419"/>
</svg>
