<svg width="14" height="22" viewBox="0 0 14 22" fill="none" xmlns="http://www.w3.org/2000/svg" xmlns:xlink="http://www.w3.org/1999/xlink">
<path d="M6.286,19C5.733,19 5.286,19.448 5.286,20C5.286,20.552 5.733,21 6.286,21L6.286,19ZM6.522,21C7.075,21 7.522,20.552 7.522,20C7.522,19.448 7.075,19 6.522,19L6.522,21ZM9.386,10.775L8.921,9.89L8.921,9.89L9.386,10.775ZM5.643,15.846C5.643,16.398 6.091,16.846 6.643,16.846C7.195,16.846 7.643,16.398 7.643,15.846L5.643,15.846ZM1.164,3.816C0.861,4.278 0.99,4.898 1.452,5.2C1.914,5.503 2.534,5.374 2.836,4.912L1.164,3.816ZM6.286,21L6.522,21L6.522,19L6.286,19L6.286,21ZM11,6.72C11,8.014 10.213,9.21 8.921,9.89L9.852,11.66C11.691,10.693 13,8.874 13,6.72L11,6.72ZM6.643,3C9.172,3 11,4.781 11,6.72L13,6.72C13,3.446 10.031,1 6.643,1L6.643,3ZM5.643,14.21L5.643,15.846L7.643,15.846L7.643,14.21L5.643,14.21ZM2.836,4.912C3.564,3.801 4.971,3 6.643,3L6.643,1C4.346,1 2.287,2.101 1.164,3.816L2.836,4.912ZM8.921,9.89C8.161,10.291 7.365,10.834 6.747,11.528C6.126,12.227 5.643,13.13 5.643,14.21L7.643,14.21C7.643,13.76 7.839,13.311 8.242,12.857C8.649,12.399 9.225,11.99 9.852,11.66L8.921,9.89Z" fill="#331419"/>
</svg>
